<svg
	xmlns="http://www.w3.org/2000/svg" viewBox="0 0 110 89.4">
	<defs>
		<style>.white{fill:#fff;}</style>
	</defs>
	<title>Twitter logo</title>
		<g id="twitter" data-name="twitter">
			<path class="white" d="M110,10.58a45.17,45.17,0,0,1-13,3.56A22.64,22.64,0,0,0,107,1.65,45.53,45.53,0,0,1,92.63,7.13a22.58,22.58,0,0,0-39,15.44,22.88,22.88,0,0,0,.58,5.14A64.06,64.06,0,0,1,7.66,4.13a22.58,22.58,0,0,0,7,30.13A22.49,22.49,0,0,1,4.42,31.44v.28a22.58,22.58,0,0,0,18.1,22.13,22.42,22.42,0,0,1-5.95.79,22.83,22.83,0,0,1-4.24-.4A22.59,22.59,0,0,0,33.41,69.91a45.28,45.28,0,0,1-28,9.66A45.58,45.58,0,0,1,0,79.25,63.83,63.83,0,0,0,34.59,89.4C76.1,89.4,98.8,55,98.8,25.18c0-1,0-1.95-.06-2.92A45.81,45.81,0,0,0,110,10.58Z"/>
		</g>
</svg>
